<svg xmlns="http://www.w3.org/2000/svg" viewBox="0 0 18 17"><defs><style>.cls-1{fill:#fff;}.cls-2{fill:none;stroke:#fff;stroke-miterlimit:10;}</style></defs><title>Timesheet History</title><g id="Layer_2" data-name="Layer 2"><g id="Layer_1-2" data-name="Layer 1"><path class="cls-1" d="M16,6.53V0H0V15H7.53A6,6,0,1,0,16,6.53ZM8.5,3H15V5.81A5.88,5.88,0,0,0,12,5,6,6,0,0,0,8.67,6H8.5ZM1,3H7.5V6H1ZM1,7H7.5V7a5.84,5.84,0,0,0-1.41,3H1Zm0,7V11H6a5.88,5.88,0,0,0,.81,3Zm15,0a4.49,4.49,0,0,1-1,1,4.94,4.94,0,0,1-6,0A4.8,4.8,0,0,1,7.5,13.18,5,5,0,0,1,7,11a4.71,4.71,0,0,1,.1-1,4.83,4.83,0,0,1,.4-1.18,4.74,4.74,0,0,1,1-1.38A3.67,3.67,0,0,1,9,7a4.94,4.94,0,0,1,6,0h0V7a4.13,4.13,0,0,1,1,1,4.94,4.94,0,0,1,0,6Z"/><path class="cls-1" d="M15,7s0,0,0,0V7Z"/><polyline class="cls-2" points="12.08 8.97 12.08 11.47 14.92 13.02"/></g></g></svg>